<?xml version="1.0" standalone="no"?>
<svg width="200px" height="370px" version="1.1" xmlns="http://www.w3.org/2000/svg">
<path fill="none" stroke="black" d="M10 128.5 L 10 214.5 L 10.177626 215.5 L 10.5 215.73787 L 48.5 215.73787 L 49.5 215.82237 L 50 216.5 L 50 312.5 L 50.323994 313.5 L 50.5 313.6068 L 66.5 313.6068 L 66.6136 313.5 L 66.66667 312.5 L 66.66667 37.5 L 66.734634 36.5 L 67.5 35.956314 L 132.5 35.956314 L 133.26538 36.5 L 133.33334 37.5 L 133.33334 312.5 L 133.3864 313.5 L 133.5 313.6068 L 149.5 313.6068 L 149.67601 313.5 L 150 312.5 L 150 216.5 L 150.5 215.82237 L 151.5 215.73787 L 189.5 215.73787 L 189.82237 215.5 L 190 214.5 L 190 108.5 L 189.5 107.92458 L 188.5 107.86894 L 150.5 107.86894 L 150.07541 107.5 L 150 106.5 L 150 10.5 L 149.5 10 L 50.5 10 L 50 10.5 L 50 106.5 L 49.924587 107.5 L 49.5 107.86894 L 11.5 107.86894 L 10.5 107.92458 L 10 108.5 L 10 127.5 L10 128.5 "/>
<path fill="none" stroke="black" d="M135.5 0 L 199.5 0.00000023841858 L 200 0.5 L 200 322.5 L 199.67603 323.5 L 199.5 323.6068 L 0.5 323.6068 L 0.32397908 323.5 L 0 322.5 L 0 0.5 L 0.5 0 L 134.5 0 L135.5 0 "/>
<path fill="none" stroke="black" d="M190 23.5 L 190 96.5 L 189.92459 97.5 L 189.5 97.868935 L 160.5 97.868935 L 160.07542 97.5 L 160 96.5 L 160 10.5 L 160.5 10 L 189.5 10 L 190 10.5 L 190 22.5 L190 23.5 "/>
<path fill="none" stroke="black" d="M40 77.5 L 40 96.5 L 39.924583 97.5 L 39.5 97.868935 L 10.5 97.868935 L 10.075416 97.5 L 10 96.5 L 10 10.5 L 10.5 10 L 39.5 10 L 40 10.5 L 40 76.5 L40 77.5 "/>
<path fill="none" stroke="black" d="M26.5 225.73788 L 38.5 225.73788 L 39.5 225.82239 L 40 226.5 L 40 312.5 L 39.676006 313.5 L 39.5 313.6068 L 10.5 313.6068 L 10.323993 313.5 L 10 312.5 L 10 226.5 L 10.5 225.82239 L 11.5 225.73788 L 25.5 225.73788 L26.5 225.73788 "/>
<path fill="none" stroke="black" d="M190 256.5 L 190 312.5 L 189.67601 313.5 L 189.5 313.6068 L 160.5 313.6068 L 160.32399 313.5 L 160 312.5 L 160 226.5 L 160.5 225.82239 L 161.5 225.73788 L 188.5 225.73788 L 189.5 225.82239 L 190 226.5 L 190 255.5 L190 256.5 "/>
<path fill="none" stroke="black" d="M76.66667 300.5 L 76.66667 312.5 L 77.10946 313.5 L 77.5 313.6068 L 122.5 313.6068 L 122.89055 313.5 L 123.333336 312.5 L 123.333336 47.5 L 123.26538 46.5 L 122.5 45.956314 L 77.5 45.956314 L 76.73463 46.5 L 76.66667 47.5 L 76.66667 299.5 L76.66667 300.5 "/>
</svg>
